<svg width="296.99999999999994" height="101.19999999999999" viewBox="0 0 270 92" class="looka-1j8o68f"><defs id="SvgjsDefs2217"></defs><g id="SvgjsG2218" featurekey="symbolContainer" transform="matrix(1,0,0,1,0,0)" fill="#444f5a">    <rect width="100" height="92"></rect></g><g id="SvgjsG2219" featurekey="monogramFeature-0" transform="matrix(1.4556041672932722,0,0,1.4556041672932722,16.41920814024242,-10.327511955634012)" fill="#ffffff"><path d="M42.24 17.4 c0.84 0 1.44 0.42 1.44 1.14 l0 0.24 c0 1.68 -2.7 2.4 -2.7 5.16 l0 33.24 c0 1.8 -1.02 2.82 -2.76 2.82 l-3.42 0 c-1.38 0 -2.22 -0.72 -3.12 -1.98 l-21.42 -28.44 l0 23.82 c0 2.76 2.82 3.54 2.82 5.22 l0 0.24 c0 0.72 -0.6 1.14 -1.5 1.14 l-7.68 0 c-0.9 0 -1.44 -0.42 -1.44 -1.14 l0 -0.24 c0 -1.68 2.4 -2.46 2.4 -5.22 l0 -29.4 c0 -2.76 -2.4 -3.48 -2.4 -5.22 l0 -0.24 c0 -0.72 0.54 -1.14 1.44 -1.14 l8.94 0 c1.5 0 2.34 0.66 3.24 1.92 l19.5 27.12 l0 -22.5 c0 -2.76 -2.64 -3.48 -2.64 -5.16 l0 -0.24 c0 -0.72 0.6 -1.14 1.44 -1.14 l7.86 0 z"></path></g><g id="SvgjsG2220" featurekey="nameFeature-0" transform="matrix(1.8796991762357562,0,0,1.8796991762357562,115.71428862089235,-3.030074847416895)" fill="#444f5a"><path d="M13.04 18.88 c4.04 0 7.96 2.6 7.96 9.04 l0 12.08 l-3.28 0 l0 -12 c0 -4.36 -2.28 -6.24 -5.36 -6.24 c-3.72 0 -6.28 3.44 -6.8 5.96 l0 12.28 l-3.28 0 l0 -20.8 l3.28 0 l0 4.84 c0.4 -1.44 2.92 -5.16 7.48 -5.16 z M49.96 18.88 c3.76 0 7.72 2.36 7.72 9 l0 12.12 l-3.24 0 l0 -12.2 c0 -4.08 -2.16 -6.04 -5.28 -6.04 c-3.52 0 -5.6 2.92 -6.16 5.88 l0 12.36 l-3.24 0 l0 -12.2 c0 -4.08 -2.52 -6.04 -5.32 -6.04 c-3.72 0 -5.64 3.16 -6.08 5.88 l0 12.36 l-3.28 0 l0 -20.8 l3.28 0 l0 4.88 c0.2 -1.48 2.24 -5.2 6.72 -5.2 c2.76 0 6.04 1.56 7.32 5.24 c0.72 -2.16 3.24 -5.24 7.56 -5.24 z M78.80000000000001 11.719999999999999 l3.28 0 l0 12.36 l0 15.92 l-3.28 0 l0 -4 c-0.96 2.4 -3.8 4.4 -7.48 4.4 c-4.72 0 -10.44 -3.56 -10.44 -10.8 c0 -7.16 5.72 -10.76 10.44 -10.76 c3.68 0 6.52 2.04 7.48 4.28 l0 -11.4 z M71.68 37.48 c3.56 0 7.28 -2.52 7.28 -7.88 c0 -5.32 -3.72 -7.84 -7.28 -7.84 c-3.52 0 -7.6 2.6 -7.6 7.84 c0 5.28 4.08 7.88 7.6 7.88 z"></path></g></svg>
