<svg width="228.68125" height="228.68125" viewBox="0 0 264.0625 264.0625" class="looka-1j8o68f"><defs id="SvgjsDefs4584"></defs><g id="SvgjsG4585" featurekey="rootContainer" transform="matrix(5.28125,0,0,5.28125,0,0)" fill="#ffffff"><path xmlns="http://www.w3.org/2000/svg" d="M50 13.36V50H0V0h36.28L50 13.36z"></path></g><g id="SvgjsG4586" featurekey="symbolFeature-0" transform="matrix(1.5,0,0,1.5,57.00149917602539,18)" fill="#112d4e"><path xmlns="http://www.w3.org/2000/svg" d="M44.999,59.999h-15l20,20c0,0,10-10,20-20h-15V20h-10L44.999,59.999z"></path></g><g id="SvgjsG4587" featurekey="nameFeature-0" transform="matrix(1.694070546292256,0,0,1.694070546292256,52.25660376285494,140.1106127047019)" fill="#112d4e"><path d="M26.24 45.4 l0 -33.8 c0 -0.44 -0.36 -0.8 -0.76 -0.8 l-4.72 0 c-0.4 0 -0.76 0.36 -0.76 0.8 l0 17.72 l-17.2 -18.76 l0 33.8 c0 0.44 0.36 0.8 0.8 0.8 l4.68 0 c0.44 0 0.76 -0.36 0.76 -0.8 l0 -17.72 z M32.634 10.84 l0 33.56 c0 0.44 0.36 0.8 0.76 0.8 l4.64 0 c0.44 0 0.76 -0.36 0.76 -0.8 l0 -18.72 l6.92 6.92 l6.92 -6.92 l0 18.72 c0 0.44 0.36 0.8 0.8 0.8 l4.6 0 c0.44 0 0.76 -0.36 0.76 -0.8 l0 -33.56 l-13.08 13.08 z M74.14800000000001 45.16 l-8.56 0 c-0.44 0 -0.8 -0.4 -0.8 -0.96 l0 -32.6 c0 -0.4 0.36 -0.76 0.8 -0.76 l8.56 0 c4.96 0 9.92 2.16 13.28 6.28 c6.04 7.32 4.96 18.16 -2.32 24.16 c-3.2 2.64 -7.08 3.92 -10.96 3.88 z M82.628 21.08 c-2.16 -2.64 -5.32 -4 -8.48 -4 l-3.12 0 l0 21.84 l3.12 0 c2.48 0.04 4.96 -0.8 6.96 -2.48 c4.68 -3.8 5.36 -10.72 1.52 -15.36 z"></path></g></svg>
