<svg width="297" height="128.17894736842106" viewBox="0 0 190 82" class="looka-1j8o68f"><defs id="SvgjsDefs1899"></defs><g id="SvgjsG1900" featurekey="rootContainer" transform="matrix(1,0,0,1,0,0)" fill="#ffffff"><rect xmlns="http://www.w3.org/2000/svg" width="190" height="82" rx="10" ry="10"></rect></g><g id="SvgjsG1901" featurekey="nameFeature-0" transform="matrix(1.408715207278706,0,0,1.408715207278706,15.661157269058027,4.3350870562754515)" fill="#3e4e88"><path d="M3.24 40 l0 -15.96 c0 -1.28 -0.04 -2.76 -0.16 -4.12 l7.44 0 c0.08 1.2 0.16 2.4 0.16 3.6 l0.08 0 c2 -2.68 5 -4.36 8.52 -4.36 c7.32 0 10.08 4.16 10.08 9.4 l0 11.44 l-7.68 0 l0 -10.28 c0 -3.2 -1.4 -5.44 -4.88 -5.44 c-3.16 0 -5.88 2.44 -5.88 6.88 l0 8.84 l-7.68 0 z M35.84 40 l0 -15.96 c0 -1.28 -0.04 -2.76 -0.16 -4.12 l7.44 0 c0.08 1.2 0.16 2.4 0.16 3.6 l0.08 0 c1.92 -2.84 4.48 -4.36 8.28 -4.36 c3 0 5.84 1.36 7.2 4.52 c1.68 -2.68 4.44 -4.52 8.48 -4.52 c4.28 0 9.48 1.56 9.48 9.44 l0 11.4 l-7.68 0 l0 -10.52 c0 -3 -1.16 -5.2 -4.28 -5.2 c-2.56 0 -4.68 2.08 -4.68 5.04 l0 10.68 l-7.68 0 l0 -10.28 c0 -3 -0.68 -5.44 -4.16 -5.44 c-2.68 0 -4.8 2.44 -4.8 6.12 l0 9.6 l-7.68 0 z M109.39999999999999 11.120000000000001 l0 25.56 c0 1.24 0.04 2.24 0.16 3.32 l-7.44 0 c-0.12 -1.12 -0.16 -2.2 -0.16 -3.32 c-1.76 2.08 -4 4.08 -9 4.08 c-6.36 0 -11.16 -4.04 -11.16 -10.92 c0 -6.64 4.64 -10.68 11.36 -10.68 c4.44 0 7 1.8 8.56 3.4 l0 -11.44 l7.68 0 z M89.96 29.84 c0 3.24 1.84 6.28 5.8 6.28 c3.48 0 5.96 -2.44 5.96 -6 c0 -3.88 -2.48 -6.32 -5.96 -6.32 c-3.4 0 -5.8 2.52 -5.8 6.04 z"></path></g></svg>
